<?xml version="1.0" encoding="UTF-8"?>
<svg id="Layer_1" data-name="Layer 1" xmlns="http://www.w3.org/2000/svg" viewBox="0 0 496.33 84.09">
  <defs>
    <style>
      .cls-1 {
        fill: #5a9bf8;
      }
    </style>
  </defs>
  <g>
    <rect x="423.65" y="1.41" width="13.8" height="58.26"/>
    <path d="M492.73,15.85c-2.4-4.42-5.87-7.97-10.31-10.56-4.43-2.58-9.68-3.89-15.61-3.89h-24.37v58.26h24.37c5.66,0,10.78-1.25,15.23-3.72,4.47-2.48,8.01-5.98,10.52-10.4,2.5-4.4,3.76-9.48,3.76-15.09,0-5.29-1.21-10.21-3.6-14.61ZM475.08,44.58c-2.24,1.32-4.87,1.98-7.81,1.98h-11.03V14.52h11.03c2.94,0,5.57.66,7.82,1.95,2.22,1.28,3.98,3.14,5.23,5.51,1.26,2.41,1.9,5.27,1.9,8.49s-.64,6.1-1.91,8.53c-1.25,2.4-3.01,4.28-5.23,5.59Z"/>
  </g>
  <g>
    <path d="M0,1.27h14.83v4.4C19.69,2.32,26.06.12,32.2.12c7.88,0,13.78,2.78,17.38,7.88C55.48,3.13,63.01.12,70.19.12c14.36,0,21.89,9.15,21.89,23.98v35.68h-15.87V26.18c0-7.99-3.47-11.35-9.85-11.35-4.05,0-8.92,2.09-12.63,4.87.12,1.51.23,3.01.23,4.52v35.56h-15.98V26.18c0-7.99-3.36-11.35-9.73-11.35-4.05,0-8.92,2.2-12.39,4.63v40.31H0V1.27Z"/>
    <path d="M115.83,58.61L91.85,1.16h17.72l15.17,39.61L139.81,1.16h17.49l-34.52,81.78h-17.03l10.08-24.33Z"/>
    <path d="M172.82,82.01l-21.08-7.65,5.21-13.67,20.5,7.3c2.78,1.04,5.44,1.51,8.57,1.51,8.69,0,12.28-4.86,12.28-15.4v-1.62l-3.36,1.39c-2.78,1.27-7.41,2.66-11.82,2.66-16.68,0-28.61-11.93-28.61-28.26S166.33,0,184.05,0c6.02,0,11.47,1.62,15.99,4.52l1.85-3.36h12.39v54.79c0,18.19-11.35,28.15-28.61,28.15-4.63,0-9.38-.93-12.86-2.08ZM184.52,42.4c1.74,0,3.94-.12,7.18-1.39l6.6-2.55v-20.16c-3.94-2.66-8.57-4.29-12.86-4.29-9.73,0-15.17,6.14-15.17,14.25s5.44,14.13,14.25,14.13Z"/>
    <path d="M218.69,30.46c0-17.49,12.97-30.46,31.16-30.46s31.16,12.97,31.16,30.46-13.09,30.47-31.16,30.47-31.16-12.86-31.16-30.47ZM249.85,46.33c9.38,0,14.94-6.6,14.94-15.87s-5.56-15.87-14.94-15.87-15.06,6.6-15.06,15.87,5.68,15.87,15.06,15.87Z"/>
    <path d="M277.87,1.16h17.72l15.17,39.61,15.06-39.61h17.37l-24.67,58.61h-16.22L277.87,1.16Z"/>
    <path class="cls-1" d="M355.71,30.47c0-14.44,11.71-26.15,26.15-26.15s26.15,11.71,26.15,26.15-11.71,26.15-26.15,26.15-26.15-11.71-26.15-26.15"/>
  </g>
</svg>